<svg xmlns="http://www.w3.org/2000/svg" version="1.1" xmlns:xlink="http://www.w3.org/1999/xlink" xmlns:svgjs="http://svgjs.dev/svgjs" width="1000" height="750" viewBox="0 0 1000 750"><rect width="1000" height="750" fill="#ffffff"></rect><g transform="matrix(0.6245989304812835,0,0,0.6245989304812835,187.12620027913232,83.23643724696356)"><svg viewBox="0 0 264 247" data-background-color="#ffffff" preserveAspectRatio="xMidYMid meet" height="935" width="1000" xmlns="http://www.w3.org/2000/svg" xmlns:xlink="http://www.w3.org/1999/xlink"><g id="tight-bounds" transform="matrix(1,0,0,1,0.24275466284075264,-0.09999999999999432)"><svg viewBox="0 0 263.5144906743185 247.2" height="247.2" width="263.5144906743185"><g><svg viewBox="0 0 263.5144906743185 247.2" height="247.2" width="263.5144906743185"><g><svg viewBox="0 0 263.5144906743185 247.2" height="247.2" width="263.5144906743185"><g id="textblocktransform"><svg viewBox="0 0 263.5144906743185 247.2" height="247.2" width="263.5144906743185" id="textblock"><g><svg viewBox="0 0 263.5144906743185 247.2" height="247.2" width="263.5144906743185"><g><svg viewBox="0 0 263.5144906743185 247.2" height="247.2" width="263.5144906743185"><g transform="matrix(1,0,0,1,0,0)"><svg width="263.5144906743185" viewBox="3.85 -34.85 37.15 34.85" height="247.2" data-palette-color="#2978b5"><path d="M3.85-34.85L8.4-34.85 8.4 0 3.85 0 3.85-34.85ZM41 0L35.05 0 20.7-15.9 20.7 0 16.15 0 16.15-34.85 20.7-34.85 20.7-18.7 35.1-34.85 40.85-34.85 25.05-17.4 41 0Z" opacity="1" transform="matrix(1,0,0,1,0,0)" fill="#2978b5" class="wordmark-text-0" data-fill-palette-color="primary" id="text-0"></path></svg></g></svg></g></svg></g></svg></g></svg></g></svg></g><defs></defs></svg><rect width="263.5144906743185" height="247.2" fill="none" stroke="none" visibility="hidden"></rect></g></svg></g></svg>